<?xml version="1.0" encoding="UTF-8"?>
<svg id="Clove_svg" data-name="Clove" xmlns="http://www.w3.org/2000/svg" viewBox="0 0 632.38 738.98">
  <defs>
    <style>
		.cls-1 {
		fill: #7AFF5D;
		fill-opacity: 0.4;
		stroke: #7AFF5D;
		stroke-width: 5px;
		}
	</style>
  </defs>
  <g id="clove_g">
    <path class="cls-1" d="M156.6,563.84c17.49,9.52,18.42,28.91,20.77,46.21,.16,1.19,1.15,2.08,2.34,2.16,12.2,.83,35.87-3.36,48.33-5.98,1.42-.3,2.78,.66,2.99,2.1l5.59,38.25c.2,1.34,1.43,2.29,2.78,2.13,66.45-7.85,37.6,11.48,96.86-40.42,.46-.4,1.05-.62,1.66-.62,28.83-.06,44.34-5.7,65.54-25.51,.34-.31,.58-.71,.71-1.15,1.26-4.46,8.44-29.82,9.64-34.06,.11-.4,.32-.75,.6-1.04,11.71-12.11,28.98-38.39,34.14-54.28,.06-.18,.14-.36,.25-.52,15.14-23.96-10.02-43.16-22.11-61.64-.9-1.38-.21-3.25,1.36-3.75l40.21-12.7c.71-.22,1.48-.14,2.1,.27,15.24,10.08,39.49,84.67,46.07,100.24,.14,.33,.35,.63,.62,.88,30.47,27.94,69.26,11.43,94.02-15.23,1.17-1.26,3.25-1.01,4.05,.51,15.56,29.66,5.46,123.16-11.89,150.64-.54,.86-.49,1.94,.08,2.77,12.9,18.75,19.51,51.7,27.43,73.2,.49,1.34-.24,2.82-1.6,3.26-18.83,6-45.11,4.45-64.38,4.47-.65,0-1.28,.25-1.74,.72-8.21,8.44-29.08-4.78-37.86-8.08-.53-.2-1.1-.21-1.65-.04-13.82,4.33-42.56,7.71-56.68,8.4-.13,0-.25,0-.38,0-34.18-3.11-23.98-25.07-31.86-49.78-.18-.56-.55-1.04-1.05-1.36-4.09-2.6-23.4-14.88-29.72-18.9-1.13-.72-2.62-.42-3.39,.67l-32.03,45.12c-.28,.39-.66,.7-1.1,.88-42.63,17.46-101.6,23.72-138.83-8.88-.53-.47-1.23-.68-1.93-.6-29.17,3.23-53.87-16.28-75.13-32.55-.49-.38-1.11-.56-1.73-.51-50.23,3.99-58.06,11.05-90.46-32.53-.55-.74-1.47-1.11-2.39-.99-20.83,2.88-37.83-5.76-54.25-17.33-.77-.55-1.17-1.48-1.04-2.42,.78-5.28,3.35-22.69,3.97-26.89,.09-.59,.39-1.14,.84-1.53,31.95-27.83,65.36-25.42,55.63-76.03-.2-1.02-1.01-1.81-2.03-1.99l-14.41-2.54c-2.4-.42-2.85-3.66-.66-4.74,31.3-15.46,74.43,14.79,101.17,29.41,.6,.33,1.03,.87,1.21,1.53,1.31,4.73,6.77,24.49,8.09,29.27,.18,.67,.64,1.22,1.25,1.55Z"/>
    <path class="cls-1" d="M58.28,145.78l-8.27,17.14s-.05,.1-.07,.15l-21.83,54.01c-1.66,4.1,1.36,8.58,5.79,8.58H227c.62,0,1.22,.23,1.69,.65l26.4,23.89c.56,.5,1.31,.73,2.05,.62l68.85-10.18c1.23-.18,2.14-1.24,2.14-2.48v-10.83c0-1.32-1.01-2.41-2.33-2.5l-51.17-3.78c-.44-.03-.86-.18-1.23-.43l-47.29-32.18c-.1-.07-.21-.13-.32-.18l-48.74-23.59c-.44-.21-.94-.29-1.43-.23l-48.34,6.48c-.43,.06-.88,0-1.28-.16l-35.38-14.41-29.15-11.79c-1.23-.5-2.63,.04-3.2,1.24Z"/>
    <path class="cls-1" d="M367.86,168.69l9.38-50.03c.04-.22,.11-.43,.2-.62l24.1-50.15c.27-.57,.32-1.22,.14-1.83l-7.56-24.57c-.1-.32-.13-.66-.1-1l3.71-35.24c.13-1.28,1.21-2.25,2.5-2.25h4.56c1.39,0,2.51,1.12,2.51,2.51V38.08c0,.17,.02,.33,.05,.49l5.14,25.69c.1,.48,.05,.98-.13,1.43l-22.32,55.14c-.04,.11-.08,.22-.11,.33l-12.15,48.59c-.28,1.12-1.28,1.9-2.44,1.9h-5.01c-1.57,0-2.76-1.43-2.47-2.97Z"/>
  </g>
</svg>