<?xml version="1.0" encoding="UTF-8"?>
<svg id="False_Daisy_svg" data-name="False Daisy" xmlns="http://www.w3.org/2000/svg" viewBox="0 0 396.6 487.33">
  <defs>
    <style>
		.cls-1 {
		fill: #FAFFBE;
		fill-opacity: 0.4;
		stroke: #FAFFBE;
		stroke-width: 5px;
		}
	</style>
  </defs>
  <g id="False_Daisy_g">
    <polygon class="cls-1" points="123 484.33 127 445 133 430.33 133 393 150.33 365 161.67 346.33 168.33 327 168.33 295.67 154.33 274.33 154.33 257.67 168.33 254.33 192.33 262.33 207 263.67 222.33 271.67 230 258 198.33 249.67 186.67 238 159.67 229.67 147 207.67 129 197.67 123 181 105 191 90.33 197.67 61.67 184.33 45 157.67 45 143.67 21 131.67 3 101.67 3 85 15.67 72.33 23 59.67 11.67 42.33 14.33 28.33 29 21.67 41 21.67 50.67 31.33 60.33 16.33 75.67 12.33 87 17 95 25 99.67 12.33 116.5 3 137 3 145 11 171 16.33 191.67 24.33 203.67 45 203.67 63 187.67 71 174.33 71 157.67 79.67 144.33 84.33 152.67 92.67 157 108.33 152.33 128.33 147 151 143 160.33 143 182.33 161 194.33 165 206.33 176.33 219 195 219 207 231 233.67 234.33 256.33 257 272.33 273 298.33 284.33 329 308.33 347.67 335.67 357.67 369 367.67 400.33 384.33 428.33 388.33 456.33 393 473 375.67 480.33 367 457 363 435 347 406.33 337 371.67 327.67 345 312.33 319.67 290.33 303.67 267 295 240.33 295 213.67 295 190.33 310.33 183.67 341 173 368.33 153.67 394.33 153.67 431 146.33 445.67 141 484.33 123 484.33"/>
  </g>
</svg>