<?xml version="1.0" encoding="UTF-8"?>
<svg id="Notoginseng_svg" data-name="Notoginseng" xmlns="http://www.w3.org/2000/svg" viewBox="0 0 877.65 396.79">
  <defs>
    <style>
		.cls-1 {
		fill: #FFE24A;
		fill-opacity: 0.4;
		stroke: #FFE24A;
		stroke-width: 5px;
		}
	</style>
  </defs>
  <g id="Notoginseng_g">
    <polygon class="cls-1" points="284.55 20.46 338.55 3.79 347.89 39.12 377.89 27.79 417.22 39.12 463.22 55.12 476.55 55.12 493.22 85.79 537.89 69.79 571.22 75.79 592.55 103.79 625.89 107.79 696.55 127.79 732.55 120.46 748.55 124.46 805.89 127.79 840.55 131.12 861.22 151.79 873.22 165.12 719.89 279.12 725.89 332.46 717.89 379.12 658.55 393.79 548.55 393.79 515.22 393.79 387.89 393.79 241.89 393.79 147.22 393.79 61.22 393.79 3.22 331.12 15.89 261.79 27.89 235.79 21.89 207.79 32.55 181.79 53.89 198.79 66.55 220.46 90.55 213.12 104.89 198.79 167.89 193.79 199.22 172.46 236.55 159.79 273.22 118.46 301.89 65.12 284.55 20.46"/>
  </g>
</svg>