<?xml version="1.0" encoding="UTF-8"?>
<svg id="Heat_svg" data-name="Heat" xmlns="http://www.w3.org/2000/svg" viewBox="0 0 883.15 845.39">
  <defs>
    <style>
		.cls-1 {
		fill: #FFEBA8;
		fill-opacity: 0.4;
		stroke: #FFEBA8;
		stroke-width: 5px;
		}
	</style>
  </defs>
  <g id="Heat_g">
    <polygon class="cls-1" points=".5 500.5 58.5 537.5 130.5 583.5 146.5 627.5 173.5 651.83 193.17 654.83 211.5 662.5 226.83 703.83 246.83 720.5 276.5 742.5 319.83 769.5 383.17 773.83 481.17 786.5 518.17 809.83 558.17 790.17 589.17 785.83 602.83 791.17 614.5 805.17 636.5 819.5 695.17 834.5 765.5 840.5 798.83 844.83 803.5 818.5 806.5 788.5 812.83 736.5 822.17 653.17 822.17 588.83 834.17 495.61 840.83 438.72 851.94 397.83 858.61 324.94 861.28 255.17 867.5 175.61 877.28 80.06 882.61 .5 .5 .5 .5 500.5"/>
  </g>
</svg>