<?xml version="1.0" encoding="UTF-8"?>
<svg id="Honeysuckle_svg" data-name="Honeysuckle" xmlns="http://www.w3.org/2000/svg" viewBox="0 0 986.29 908.12">
  <defs>
    <style>
		.cls-1 {
		fill: #FAFF80;
		fill-opacity: 0.4;
		stroke: #FAFF80;
		stroke-width: 5px;
		}
	</style>
  </defs>
  <g id="Honeysuckle_g">
    <polygon class="cls-1" points="251.45 726.34 244.34 597.01 200.34 552.12 174.12 481.45 90.56 397.01 40.34 324.56 13.67 282.34 4.79 225.01 8.34 201.9 3.01 75.68 8.34 35.23 7.9 5.68 879.23 3.01 881.23 65.01 935.9 102.34 966.56 133.01 973.23 201.68 967.9 288.34 983.23 401.01 957.23 485.01 889.9 595.01 863.23 705.68 809.23 665.01 749.9 599.68 737.9 499.01 661.9 472.34 591.9 499.01 449.23 563.68 435.9 627.68 316.56 622.34 321.23 723.68 318.56 801.68 321.9 888.34 281.23 904.34 256.56 857.01 251.45 726.34"/>
  </g>
</svg>