<?xml version="1.0" encoding="UTF-8"?>
<svg id="Kaolin_Clay_svg" data-name="Kaolin Clay" xmlns="http://www.w3.org/2000/svg" viewBox="0 0 681.94 711.81">
  <defs>
    <style>
		.cls-1 {
		fill: #FFFCEB;
		fill-opacity: 0.4;
		stroke: #FFFCEB;
		stroke-width: 5px;
		}
	</style>
  </defs>
  <g id="Kaolin_Clay_g">
    <polygon class="cls-1" points="131.17 78.34 128.61 104.12 113.5 131.01 134.06 160.57 148.28 195.57 189.39 244.12 164.5 255.01 133.83 235.68 115.83 265.01 138.5 337.01 56.28 337.57 25.83 310.01 2.5 310.01 2.5 371.79 34.5 371.79 85.17 414.68 101.61 454.01 122.06 464.9 159.17 524.45 176.72 526.68 262.5 550.68 257.17 588.68 231.5 611.01 252.83 637.34 291.17 670.01 340.5 683.34 374.17 700.68 393.17 709.01 426.83 689.34 415.83 645.68 420.5 622.34 430.5 585.01 460.5 592.34 508.5 613.68 536.17 609.34 585.17 619.68 666.17 543.01 679.39 405.57 651.39 344.45 615.17 305.57 629.83 255.34 602.72 156.68 604.06 122.23 606.5 99.34 643.61 45.79 622.06 13.12 562.06 2.68 499.83 60.9 420.06 139.79 205.39 137.57 175.39 67.34 131.17 78.34"/>
  </g>
</svg>