<?xml version="1.0" encoding="UTF-8"?>
<svg id="Knotweed_Herb_svg" data-name="Knotweed Herb" xmlns="http://www.w3.org/2000/svg" viewBox="0 0 1189.84 1334.88">
  <defs>
    <style>
		.cls-1 {
		fill: #FFAAE4;
		fill-opacity: 0.4;
		stroke: #FFAAE4;
		stroke-width: 5px;
		}
	</style>
  </defs>
  <g id="Knotweed_Herb_g">
    <path class="cls-1" d="M1171.29,510.14l-6,6-24,7.33-36,9.33-24,9.33-26.33,20.33-13-13-9.33-18-30.67,3.33-3.33-14,8-26.67v-15.33h16v9.33l19.33,19.33,5.33-6,13.33-22.67,7.33-17.33,11.33,3.33-5.33,19.33-13.33,19,2.67,38.33,34.67-21.33,10-55.33,12,4.67-8,50.67,30.67-6,28.67-13.33v9.33Zm-570.44,178.44l-2,8.67,32.22,10.22,26.67,8.22h11.56l36.89-1.56,10.67,3.11h27.33l4.44-4.44,16.67-2,6-6s22.11-39.22,22.89-40,10.44-4.67,10.44-4.67l21.56-4.44,19.78-10.67,9.33-5.11,17.11,21.56,9.33,7.56,16.44,6.67h20.89l15.33-3.33,18.89-6.44,7.33-7.33,12-14.44,1.78-13.78-1.78-27.78,19.56-6.44,6.44-12-3.11-13.11-8.89-2.89v10.89l-4,8.22-11.56,4.44-16.22,9.56-9.56,7.78-16.67,2.67h-14l-12.44-7.56-7.33-9.33-12.44-20.22s-17.33-22.67-17.33-23.78-12.67-22-12.67-22l17.56-21.11,5.33-15.33-12.22-7.33-10.67,13.33s-10.44,10.44-11.11,11.11-8,14-8,14v12.67l-39.56-3.78-1.56,24,37.11,18.44,28.22,9.33,13.33,15.78,1.78,16.89-4.67,8.67-24.22,6.22-20.22,5.78-10.89,8.89-14.22-22-10,20.89-27.78-12.67-9.11,9.11,11.11,13.78-37.11-7.33-37.78,41.11-25.11,11.56-31.56-4.22-30.22-8Zm-56,15.78l8.67-1.56v-10.67l-28.89-9.78-10.22-9.11,44-46.44,15.56-16.44s14.89-26.22,15.78-26.22,11.33-9.78,11.33-9.78l13.56,9.78,15.33,20.89s9.78-6.22,9.78-7.33-8.33-11.44-9.11-12.22-23.11-17.56-23.11-17.56l8-16.44,13.56-17.78,13.78-9.56-11.78-9.56-29.78,34-24-4.89-15.56,13.11,31.33,3.33-29.78,33.56-21.56,24-33.33,28.67-27.33,18.89-20.89,4-5.56,9.78,30.67,3.56,18.89-3.11,16.44,13.56,24.22,11.33Zm-101.11-40.67l4.33-4.33-17.67-8.78-13.78-8.22,1.56-10.67-17.78-6-16.89-9.56-7.78-15-13.17-13.17-14.17-10.94s-11.67-10.78-12.44-11.56-6.44-5.33-6.44-5.33l8-23.11-1.78-17.11-13.33-15.56,28.89-19.33s12.22-15.33,13.33-15.33,18.78-19.78,20.61-19.78,22.94-17.56,22.94-17.56l22-22.44,13.11-11.11-6.67-24.89,14.89-6.89,9.11-32.22-10-43.33,1.78-52.22-44.89,1.56-.67,48.89s-10.11,29.67-12.44,32-5.11,26.89-5.11,26.89l11.11,24.67s15.78,9.78,19.11,9.78,13.11,3.78,13.11,3.78l-21.11,24.89-12.89,14.67-20,14.89-33.78,35.33-24.22,18-31.11-6.22-3.78-23.78-10.44-19.78-21.56-12.44-6.44-12-23.78-5.56v-20.67l15.11-22,14.67-18.89,11.56-22.44s11.56-37.56,10.67-37.56,8.89-28.89,8.89-28.89l-7.56-30.22-12.67-23.33,3.11-19.33,.44-81.11-20.44-30.89-39.33-36.89,1.33-19.56L199.06,1.7l-21.33,4.22,5.11,35.78,22.22,39.33,12.67,15.56,23.56,6.44-5.78,103.11,22,46.22-29.56,48-8.89,46-25.11,31.56-13.11,23.56-47.11,16h-20.44l-27.78-25.33,14.67-25.78,4.44-33.67s18.67-23.22,20-24.56,9.56-26.22,9.56-26.22l5.11-34.67-25.56-16.44s-10,15.56-10,17.56-5.33,53.33-5.33,53.33c0,0-6.89,30.22-6.89,32.22s-3.33,31.33-3.33,31.33l-9.33,21.33-28.44-7.56-21.56-11.33-22.22-6.44-4.89,19.56,39.33,22.67,30.67,17.33,28.89,18.89,18.89,6.22,20.22-.67,11.56,19.56,10.67-3.33-10.67-21.33,33.78-2.67,35.56,1.78,19.33,20.89,21.11,35.33-1.78,37.33,11.33,27.56,16.89,16.89,33.56,12.89,32.44,37.56,32.22,29.33,6.89,18.22-27.56,22-27.78,13.33-24.22,6.67-25.78,3.33s-8.89,19.78-8,19.78,38.89,1.56,40.67,1.56,20.44-18.44,26.89-20.44c6.44-2,35.78-18.89,38.44-18.89s30.89-20.44,30.89-20.44l27.56-18.44Zm229.11,397.33l-15.33-3.56-26.67-.22-19.33-4s2.22-6.44,1.11-9.78-4.22-26.22-4.22-26.22l-12-8.44-20.89-4.67-41.11-21.11-23.33-.89-30.44-7.78-13.89-12.78-17.67-17.67-10-29.33,1.33-15.11,10.22-30.22,7.78-54.44-2.44-45.11-4.67-26.67-8.67,1.11,2.89,28.89,3.56,44.22s-10.44,44.67-10.44,46.22-11.56,35.56-9.78,35.56,7.56,39.33,7.56,39.33l21.78,28.67,28.89,20.89,53.56,20,55.11,12.89s10.22,23.33,10.22,24.44-17.78,31.33-17.78,31.33l-16,12.44-30.44-6.44-16,10.67-15.11,18.89-1.56,31.56-28.44,6.89-11.56,34.44-13.11,34.67-38.89,18.89-32.89,30.22-44.22,20.44-16,20.67-26-10.44-28.67-21.33-12.89-10.89-9.56,22.67,24.22,23.78,41.56,19.56,29.11-11.11,13.78-19.78,29.78-13.78s27.78-11.56,29.11-12.89,21.11-22.22,21.11-22.22c0,0,27.78-19.56,30.89-19.56s31.78-65.11,31.78-65.11l23.33-14.22,2.22-28.22,16.89-21.33,37.56,1.78,34.67-31.11,23.33-13.56,36.67,3.56v-4.67Zm103.44,110.78l13.67-13.67-13.67-30.67s-18.83-29.83-17.67-31c1.17-1.17,3-20,3-20l19.33-3.33,31.67,4,47.67,27.33,6-5.33-35-18.33-17.33-10-21-1.33-26.67-2.33-13.67,9.67-10.67-2.67-1.33,6.67,8,18,11,23,10.33,17s9,14,9,16-2.67,17-2.67,17Zm351.67,12.67l-12-7-11-5.67-11,2.33-5-8s4.17-7.5,5.33-8.67-10.17-4.83-11.33-3.67-2,11.67-3.67,11.67-11.67,2.33-13,2.33-21-4-21-4l-21.33-3-18-9h-20.67l-8.17-9.17-5.17,5.17,3.33,10,16,5.33,32.33,5,38.33,7,26,6-5.67,19.33,13.67-2.67,4-16.67,9.67,2.67,16,10,2.33-9.33Zm36-359l-14.33,5-12.33,7-24-8.33-34-15-29.33-4s-12.67,5.67-14.33,5.67-27.5-3.17-30.67,0c-3.17,3.17-16.83,7.5-19.67,10.33s-15.67,20.67-15.67,20.67l-16,43.67-17.67,7.33-19.33,44.33,22.67,20,16.33-5.33,5.67-12,10.67,9.33,2.33,22,11.33,16.33,18.33-2.67,16,7.67-4.33,28,3.33,17.33,2.33,19-14.33,18.67,10.67,17.33,11.67,15.33,14.67,6.33,21.67-6,9.83-9.83,21.83-1.17,6,12.33,13.67,8h14.33l11.33,4.67,13.67-6v-21.67l7.67-274.33Zm-162.83,249.17l-7.17,2.83-10.67-1.42-13.33-6.92h-35.67l-13,4.17-8.33,7.83-4.33,4.33-5.67-2.33-15.67-14-16.33-5.33h-8l-50-55.33-4.67-14.67,11.33-4,4.33-11.33,11.67-2.67,14.67-7v-7.67l-25-40.67-13,3-3.17,3.17-8.83-6.17-8-8h-7.33l-3.33,25.33,3.67,19.33,9.67,17.33-1,8.33-12.33,8.33-4.33,16.67-22.33,15-11.67,5-36.67-12.67-58.33-1-17.67-30.33-18.67-7-29.33-3.67h-17.67l-4.67,4.67,17.33,3,16.33-1.33,14.67,1.67,13.33,4,11.67,13.83,7.33,18.83,6.67,5.33,10-3,13.67-1.67,37,1.67,16,13.67,14,7.67,11-4.67v-7l9.67-2.67,7.67,7.67,4.67,10.33,18.67,8.33,10.33-1.33,10.67,10.67,10.33,2.33,12.33-4.33,12.33-5,16.67,14h12.33l15.67,8.33,10,12.33,10.83,2.67,6.5-11.67,16.33-6,15-1.33,21,1,13.33,5.33,14,2.67,3.5-3.5v-5Zm-286.17-321.17s26.33,12.67,28.67,12.67h24.67l9.33,19,18.33,10.67,25.67,8,25-9,22-21.33,23.67-51.67,32-13.67,32.33-22.67,14.5-14.5,49.83-11.17,10.33-7,3.67-36.67,28-20,45.67-8.67,19.33,7.33,14.33,25,11.33,30.33,1.33,12-10,9.67s-33.67-.67-35.67-.67-4.67,46.11-4.67,46.11l-7.33,13.89,1.33,23.67,17,17.67,15.67,5.33-7.33,11.67,9,16h13.33l12.33,8,8.67,8.67v8.33l16.33,6,4.33-11.67-16.33-7.67-13.67-13.67,6-39-14.67-30.33-4.33-25,6-36,11.67-8.67,1.33-14.33-12-16-11-29.33-17-22.44h-27l-30.33,4.44-21.67,11-16,14.67-2,35-9.33,6.67-23,5s-23.67,5-27,5-12.33,11-12.33,11l-11.67,10.67-24.33,15-19.67,14h-13.67l-12.67,18.67-43.33-5-59.33,31.67-26.33-2.67-25-9-4.33,5ZM881.06,113.14l28,16,30.67-15.56s20-26.67,22.67-30.22c2.67-3.56,6.67-33.78,6.67-33.78l-4.89-34.67-21.33-9.78-25.33,70.22-36.44,37.78Zm-148.78,215.67l25.33,4,22.67-2,19.67,3.67,8.33-9,5.33-13,9.33-11.33,13.67-10.67,6.33-13.67-1.33-15.67-18-24.33-14-16-17.33-16-18.33-9-26,.33-25.67,5.33-11.67,25-14.67,19.67-4.33,24.33,11.33,23.33,17.67,22,11.67,13Z"/>
  </g>
</svg>