<?xml version="1.0" encoding="UTF-8"?>
<svg id="Mulberry_Leaves_svg" data-name="Mulberry Leaves" xmlns="http://www.w3.org/2000/svg" viewBox="0 0 950.3 1400.29">
  <defs>
    <style>
		.cls-1 {
		fill: #009631;
		fill-opacity: 0.4;
		stroke: #009631;
		stroke-width: 5px;
		}
	</style>
  </defs>
  <g id="Mulberry_Leaves_g">
    <polygon class="cls-1" points="917.67 1397.29 930.33 1359.29 927.67 1321.29 908.33 1288.62 901 1252.62 897.67 1212.62 922.33 1205.29 945.67 1205.29 928.33 1166.62 928.33 1108.62 879.67 1079.95 855 1037.95 843.67 995.95 819.33 971.62 784.33 977.95 747.67 945.95 671 928.62 587.67 921.29 534.33 907.29 519 931.95 476.33 934.62 450.33 901.95 450.33 825.29 456.33 761.29 436.33 693.95 458.33 639.29 495.67 595.29 496.33 559.95 508.33 523.95 521.33 510.95 511 485.29 502.33 443.95 479 407.95 453.67 369.95 421.67 347.95 429 312.62 380.33 294.62 343 282.62 327.67 282.62 319 223.29 273 223.29 241 196.62 216.33 145.95 179.67 119.95 141.67 72.62 98.33 29.29 55.67 3.95 3 73.95 3 1397.29 917.67 1397.29"/>
  </g>
</svg>