<?xml version="1.0" encoding="UTF-8"?>
<svg id="Pea_svg" data-name="Pea" xmlns="http://www.w3.org/2000/svg" viewBox="0 0 698.51 550.66">
  <defs>
    <style>
		.cls-1 {
		fill: #FFA6E8;
		fill-opacity: 0.4;
		stroke: #FFA6E8;
		stroke-width: 5px;
		}
	</style>
  </defs>
  <g id="Pea_g">
    <path class="cls-1" d="M380.22,81.26l4.89-10.22h15.56l17.33,5.11,8.56-8.56,15.44-9.44,11.78-11.78h22.44l3.11,11.78-5.33,12.89-7.11,7.11,7.33,7.33,28.67-5.11,26.67-9.78,5.78-38.22,29.78-20.44,39.56-8.89,27.11,2.67,15.56,27.11,9.33,28.44,8,8v18.67l-16,9.33,2.67,35.56,16.89,52.89-6.22,12-18.67,4.89-4,16.44,25.33,5.33,26.22,18.22,3.56,12.44-36-2.67-10.22,26.22,11.56,29.78-4.44,12,8.89,46.67v19.11l-16.89,6.67-3.11,64.44-10.89,10.89,6.89,34.44,20.89,15.11,1.33,22.67-9.33,7.11-39.56-7.11-9.11-9.11-4.67-12.22s-16.22,2.89-18.22,4.89-14.22,12-14.22,12l-23.56,6.67-18.67-14.22-5.78-21.33-8-8-15.11,3.56-20.44-9.33-21.33,3.11h-12l-20.44,4.89-5.78,10.22h-13.78l-9.33-13.33-13.78-19.11-31.56-13.78-17.78,3.56-32-4.89-21.78-15.56-19.11-8.89-24.44,3.56-20-2.22-41.33-3.11-29.78-14.22-16.44-22.22-30.67-3.11-26.22-1.78-11.78-11.78v-16.22l-24.67,2.22-4.44-10.22,11.56-6.22-15.11-19.56v-10.67l-14.67-19.56-5.78-22.67,5.33-5.33,11.11,2.22,5.78-8.44-2.22-10.22-8.89-2.67,4.44-23.11,6.89-6.89,10.89-15.78s7.56-23.11,9.78-23.11,23.56-9.33,23.56-9.33l1.33-16.44,24.44-10.67h24.44l20.44-1.78,11.11,11.11h17.78c2.22,0,10.67,9.33,10.67,9.33h15.56l20.44-3.56,25.78,9.33,31.56,6.22,10.22,15.11,19.11,14.22,24.44,6.22,28-15.11,14.22-19.11,11.56-28.44,10.67-18.22,27.11-7.11,20-13.78,28.44-24-7.11-7.11-23.56,6.67-23.56,4.89-24.89-6.22-8-9.33Z"/>
  </g>
</svg>