<?xml version="1.0" encoding="UTF-8"?>
<svg id="Sand_Onion_svg" data-name="Sand Onion" xmlns="http://www.w3.org/2000/svg" viewBox="0 0 936.75 901.42">
  <defs>
    <style>
		.cls-1 {
		fill: #FF74C4;
		fill-opacity: 0.4;
		stroke: #FF74C4;
		stroke-width: 5px;
		}
	</style>
  </defs>
  <g id="Sand_Onion_g">
    <polygon class="cls-1" points="12.38 563.75 69.05 607.08 83.05 665.75 146.38 704.42 171.72 754.42 220.38 787.08 240.38 813.75 285.72 828.42 339.05 822.42 378.38 843.75 435.05 863.08 497.05 878.42 538.38 864.42 571.72 845.75 602.38 845.08 629.05 849.08 653.05 838.42 695.72 838.42 740.38 860.42 771.72 869.75 801.72 898.42 836.38 898.42 865.72 886.42 917.72 795.75 933.72 745.75 930.38 695.08 917.05 682.42 877.05 683.08 845.05 598.42 832.38 563.75 791.72 509.08 703.05 444.42 623.72 381.75 611.05 314.42 622.38 262.42 671.05 209.75 690.38 57.08 664.38 3 3.05 3 12.38 563.75"/>
  </g>
</svg>