<?xml version="1.0" encoding="UTF-8"?>
<svg id="Tier_3_svg" data-name="" xmlns="http://www.w3.org/2000/svg" viewBox="0 0 973.22 901.42">
  <defs>
    <style>
		.cls-1 {
		fill: #0B00D1;
		fill-opacity: 0.4;
		stroke: #0B00D1;
		stroke-width: 5px;
		}
	</style>
  </defs>
  <g id="Tier_3_g">
    <path class="cls-1" d="M950.5,795.75l-23.83,48,22.5,22.33,19.83,12-11.67,17.67-16.17-2-42.67-7.33-29.33,12h-34.67l-30-28.67-31.33-9.33-44.67-22h-42.67l-24,10.67-26.67-4-30.67,.67-33.33,18.67-41.33,14-62-15.33-56.67-19.33-39.33-21.33-53.33,6-45.33-14.67-20-26.67-48.67-32.67-25.33-50-63.33-38.67-14-58.67L3,505.58,3.33,3H697.17l26,54.08-19.33,152.67-48.67,52.67-11.33,52,12.67,67.33,79.33,62.67,88.67,64.67,40.67,54.67,12.67,34.67,32,84.67,40-.67,13.33,12.67,3.33,50.67-16,50"/>
  </g>
</svg>