<?xml version="1.0" encoding="UTF-8"?>
<svg id="Tier_4_svg" data-name="Tier 4" xmlns="http://www.w3.org/2000/svg" viewBox="0 0 440.46 893.84">
	<defs>
		<style>
			.cls-1 {
			fill: #D70500;
			fill-opacity: 0.4;
			stroke: #D70500;
			stroke-width: 5px;
			}
		</style>
	</defs>
	<g id="Tier_4_g">
    <path class="cls-1" d="M192.19,174.39l17,17-35.22,23-2.89,19.11h-19.78l-23.11-26-44.44-35.78-24-9.33-21.11-32.89-20.22-14.67L1.52,81.73,5.75,17.73,32.64,6.62l41.11-3.11h31.61l30.17-2,45.33,5.11,39.56,8.44,33.11,30.67,19.11,11.56,13.11,15.78,17.56,5.33,22-1.78,18.67,11.78-5.11,26.44h-54.22v32.89l-36.44,1.33-47.33-19.33-8.67,44.67Zm-27.17,701.72l22.67,5.83,14.83-5.83,26.67,7.33,30,8.83,35.5-9.33,16.17-20.67,62.67-2.78,11.56-8.44,5.11-42.44,26.22-15.33,12.44,5.11,9.56-21.56-29.11-9.56-35.33-18-26.67-21.78-19.44-19.44-23.67-20.78-6.22-16.44-15.11-25.11-54.44-18.67-24.22,7.11-33.11,8.22-54.89,28,19.56,34.44,5.56,14.44,13.56,20.67,6.22,12.89-10.67,15.11-6.67,9.78-5.33,21.11v36.67l4.44,34.44,22.17,6.17Z"/>
  </g>
</svg>